<svg width="32" height="34" viewBox="0 0 32 34" fill="none" xmlns="http://www.w3.org/2000/svg">
<path d="M26.71 27.8995H5.29004C4.16328 27.8981 3.08304 27.4291 2.2863 26.5953C1.48955 25.7615 1.04136 24.631 1.04004 23.4518V10.0356C1.04136 8.85639 1.48955 7.72591 2.2863 6.89211C3.08304 6.05831 4.16328 5.58928 5.29004 5.58789H26.71C27.8368 5.58928 28.917 6.05831 29.7138 6.89211C30.5105 7.72591 30.9587 8.85639 30.96 10.0356V23.4518C30.9587 24.631 30.5105 25.7615 29.7138 26.5953C28.917 27.4291 27.8368 27.8981 26.71 27.8995ZM5.29004 7.15766C4.56069 7.15766 3.86122 7.46086 3.3455 8.00058C2.82977 8.54029 2.54004 9.2723 2.54004 10.0356V23.4518C2.54004 24.2151 2.82977 24.9471 3.3455 25.4868C3.86122 26.0265 4.56069 26.3297 5.29004 26.3297H26.71C27.4394 26.3297 28.1389 26.0265 28.6546 25.4868C29.1703 24.9471 29.46 24.2151 29.46 23.4518V10.0356C29.46 9.2723 29.1703 8.54029 28.6546 8.00058C28.1389 7.46086 27.4394 7.15766 26.71 7.15766H5.29004Z" fill="white"/>
<path d="M16.0001 19.9256C15.0748 19.9271 14.1744 19.613 13.4351 19.0308L1.76007 9.79012C1.67758 9.72954 1.6076 9.65218 1.55432 9.56266C1.50104 9.47314 1.46554 9.3733 1.44995 9.26911C1.43436 9.16491 1.43899 9.0585 1.46357 8.95622C1.48816 8.85394 1.53218 8.75789 1.59303 8.67382C1.65387 8.58974 1.73028 8.51936 1.81769 8.46688C1.9051 8.4144 2.00173 8.38089 2.10179 8.36835C2.20185 8.35582 2.3033 8.36452 2.40008 8.39393C2.49686 8.42335 2.58698 8.47287 2.66507 8.53954L14.3401 17.7907C14.8195 18.1652 15.4018 18.3676 16.0001 18.3676C16.5984 18.3676 17.1806 18.1652 17.6601 17.7907L29.3351 8.53954C29.4131 8.47287 29.5033 8.42335 29.6001 8.39393C29.6968 8.36452 29.7983 8.35582 29.8983 8.36835C29.9984 8.38089 30.095 8.4144 30.1824 8.46688C30.2699 8.51936 30.3463 8.58974 30.4071 8.67382C30.468 8.75789 30.512 8.85394 30.5366 8.95622C30.5611 9.0585 30.5658 9.16491 30.5502 9.26911C30.5346 9.3733 30.4991 9.47314 30.4458 9.56266C30.3925 9.65218 30.3226 9.72954 30.2401 9.79012L18.5651 19.0308C17.8258 19.613 16.9253 19.9271 16.0001 19.9256Z" fill="white"/>
<path d="M2.08509 25.7123C1.93297 25.7126 1.78439 25.6644 1.65905 25.5742C1.5337 25.484 1.43753 25.3561 1.38329 25.2073C1.32905 25.0586 1.3193 24.8961 1.35534 24.7415C1.39138 24.5868 1.47151 24.4473 1.58509 24.3414L10.7851 15.7548C10.9336 15.616 11.1287 15.5447 11.3275 15.5564C11.5263 15.5682 11.7125 15.6621 11.8451 15.8176C11.9777 15.973 12.0459 16.1772 12.0346 16.3852C12.0234 16.5933 11.9336 16.7881 11.7851 16.9269L2.58509 25.5135C2.44846 25.6436 2.26979 25.7146 2.08509 25.7123ZM29.9151 25.7123C29.7304 25.7146 29.5517 25.6436 29.4151 25.5135L20.2151 16.9269C20.0666 16.7881 19.9768 16.5933 19.9656 16.3852C19.9543 16.1772 20.0225 15.973 20.1551 15.8176C20.2877 15.6621 20.4739 15.5682 20.6727 15.5564C20.8714 15.5447 21.0666 15.616 21.2151 15.7548L30.4101 24.3414C30.5237 24.4473 30.6038 24.5868 30.6398 24.7415C30.6759 24.8961 30.6661 25.0586 30.6119 25.2073C30.5576 25.3561 30.4615 25.484 30.3361 25.5742C30.2108 25.6644 30.0622 25.7126 29.9101 25.7123H29.9151Z" fill="white"/>
</svg>
