<svg width="35" height="35" viewBox="0 0 35 35" fill="none" xmlns="http://www.w3.org/2000/svg">
<path fill-rule="evenodd" clip-rule="evenodd" d="M15.2952 5.52417C16.7308 4.08829 18.678 3.28149 20.7085 3.28125H24.646C24.9361 3.28125 25.2143 3.39648 25.4194 3.6016C25.6245 3.80672 25.7397 4.08492 25.7397 4.375V9.625C25.7397 9.91508 25.6245 10.1933 25.4194 10.3984C25.2143 10.6035 24.9361 10.7188 24.646 10.7188H20.7085C20.6798 10.7188 20.6513 10.7244 20.6248 10.7354C20.5982 10.7464 20.5741 10.7625 20.5538 10.7828C20.5335 10.8031 20.5174 10.8272 20.5064 10.8538C20.4954 10.8803 20.4897 10.9088 20.4897 10.9375V13.7812H24.646C24.8123 13.7812 24.9764 13.819 25.1259 13.8918C25.2753 13.9647 25.4062 14.0707 25.5086 14.2017C25.6109 14.3328 25.6821 14.4854 25.7166 14.6481C25.7511 14.8107 25.748 14.9791 25.7077 15.1404L24.3952 20.3904C24.336 20.6271 24.1993 20.8372 24.0069 20.9873C23.8145 21.1374 23.5775 21.2189 23.3335 21.2188H20.4897V30.625C20.4897 30.9151 20.3745 31.1933 20.1694 31.3984C19.9643 31.6035 19.6861 31.7188 19.396 31.7188H14.146C13.8559 31.7188 13.5777 31.6035 13.3726 31.3984C13.1675 31.1933 13.0522 30.9151 13.0522 30.625V21.2188H10.2085C9.91842 21.2188 9.64022 21.1035 9.4351 20.8984C9.22998 20.6933 9.11475 20.4151 9.11475 20.125V14.875C9.11475 14.7314 9.14304 14.5891 9.198 14.4564C9.25297 14.3237 9.33353 14.2032 9.4351 14.1016C9.53666 14 9.65724 13.9195 9.78994 13.8645C9.92264 13.8095 10.0649 13.7812 10.2085 13.7812H13.0522V10.9375C13.0525 8.90703 13.8593 6.95981 15.2952 5.52417ZM20.7085 5.46875C19.2581 5.46875 17.8671 6.04492 16.8415 7.07051C15.8159 8.0961 15.2397 9.4871 15.2397 10.9375V14.875C15.2397 15.1651 15.1245 15.4433 14.9194 15.6484C14.7143 15.8535 14.4361 15.9688 14.146 15.9688H11.3022V19.0313H14.146C14.4361 19.0313 14.7143 19.1465 14.9194 19.3516C15.1245 19.5567 15.2397 19.8349 15.2397 20.125V29.5312H18.3022V20.125C18.3022 19.8349 18.4175 19.5567 18.6226 19.3516C18.8277 19.1465 19.1059 19.0313 19.396 19.0313H22.4789L23.2445 15.9688H19.396C19.1059 15.9688 18.8277 15.8535 18.6226 15.6484C18.4175 15.4433 18.3022 15.1651 18.3022 14.875V10.9375C18.3022 10.2993 18.5558 9.68728 19.007 9.23602C19.4583 8.78477 20.0703 8.53125 20.7085 8.53125H23.5522V5.46875H20.7085Z" fill="white"/>
</svg>
